<svg width="156" height="16" viewBox="0 0 156 16" fill="none" xmlns="http://www.w3.org/2000/svg">
<g clip-path="url(#clip0_2428_2984)">
<path d="M7.61337 11.9722L11.4201 0.299314H15.2638L9.41946 15.7862H5.81654L0 0.299314H3.83447L7.61337 11.9722ZM20.5153 15.7862H17.0606V0.299314H20.5153V15.7862ZM23.72 15.7862V0.299314H28.8789C30.2624 0.27937 31.627 0.598026 32.8338 1.22288C33.9975 1.83133 34.9463 2.73699 35.5661 3.83112C36.2336 5.02477 36.5678 6.35335 36.5386 7.69643V8.40621C36.5764 9.73693 36.2583 11.0557 35.6124 12.2459C34.993 13.3236 34.051 14.2141 32.8987 14.8113C31.6916 15.4365 30.3277 15.758 28.9438 15.7435L23.72 15.7862ZM27.1747 2.88189V13.2207H28.8419C29.4289 13.2517 30.0155 13.1548 30.5545 12.938C31.0934 12.7211 31.5696 12.3903 31.9447 11.9722C32.7265 10.9538 33.1117 9.72101 33.0376 8.47462V7.69643C33.1356 6.42609 32.7633 5.16268 31.9817 4.11332C31.6053 3.69883 31.1279 3.37266 30.5885 3.16157C30.0492 2.95048 29.4633 2.86049 28.8789 2.89899L27.1747 2.88189ZM49.1442 9.05613H42.5126V13.2293H50.302V15.7948H39.0579V0.299314H50.2742V2.86479H42.5126V6.57617H49.1442V9.05613ZM66.103 8.38911C66.1341 9.7696 65.8336 11.1393 65.2231 12.3998C64.689 13.4956 63.8156 14.4209 62.7131 15.0593C61.5812 15.6678 60.2948 15.9883 58.9851 15.9883C57.6754 15.9883 56.389 15.6678 55.2571 15.0593C54.1495 14.4266 53.2672 13.5079 52.7194 12.4169C52.0931 11.1809 51.7765 9.83053 51.7932 8.46607V7.69643C51.7719 6.30678 52.0884 4.93042 52.7194 3.66864C53.2572 2.57022 54.1334 1.64229 55.2386 1.00054C56.365 0.400097 57.6428 0.0839882 58.9434 0.0839882C60.2441 0.0839882 61.5218 0.400097 62.6482 1.00054C63.7534 1.64229 64.6296 2.57022 65.1675 3.66864C65.7977 4.92763 66.1142 6.30105 66.0937 7.68788L66.103 8.38911ZM62.6019 7.69643C62.6985 6.4046 62.3761 5.11549 61.6757 3.9936C61.3661 3.60303 60.9611 3.28538 60.4936 3.0664C60.0261 2.84743 59.5093 2.73331 58.9851 2.73331C58.4609 2.73331 57.9441 2.84743 57.4766 3.0664C57.0091 3.28538 56.6041 3.60303 56.2945 3.9936C55.5966 5.10389 55.2741 6.38144 55.3683 7.66222V8.41476C55.2828 9.6976 55.6047 10.9756 56.2945 12.0919C56.5957 12.492 56.9962 12.8197 57.4626 13.0476C57.929 13.2755 58.4477 13.3971 58.9754 13.4021C59.5031 13.4071 60.0244 13.2955 60.4958 13.0765C60.9671 12.8575 61.3749 12.5375 61.685 12.1432C62.3774 11.0278 62.6994 9.74912 62.6112 8.46607L62.6019 7.69643Z" fill="#01AA9D"/>
<path d="M73.0309 10.3303V15.7862H69.5762V0.299305H76.1244C77.2711 0.277676 78.4081 0.496991 79.4495 0.940673C80.362 1.33085 81.129 1.96166 81.6538 2.75361C82.1761 3.55916 82.4455 4.48293 82.4318 5.4217C82.4662 6.09943 82.3322 6.77545 82.04 7.39799C81.7479 8.02054 81.3053 8.57309 80.7462 9.01336C79.4203 9.94521 77.7791 10.4119 76.1151 10.3303H73.0309ZM73.0309 7.76483H76.1151C76.8692 7.81268 77.6156 7.59924 78.2084 7.16622C78.4572 6.94748 78.6509 6.68088 78.7758 6.38532C78.9006 6.08975 78.9536 5.77246 78.9308 5.45591C78.9624 4.77901 78.7027 4.11806 78.2084 3.61732C77.9461 3.37673 77.6334 3.18815 77.2893 3.06315C76.9453 2.93816 76.5773 2.87938 76.2078 2.89043H73.0309V7.76483ZM88.2484 13.2207H95.5839V15.7862H84.7937V0.299305H88.2484V13.2207ZM122.36 11.7242C122.376 11.4585 122.32 11.1934 122.199 10.952C122.078 10.7106 121.895 10.5001 121.666 10.3389C120.896 9.88561 120.056 9.54252 119.174 9.32122C118.195 9.04482 117.243 8.69001 116.331 8.26082C114.429 7.31445 113.478 6.03171 113.478 4.41261C113.467 3.60888 113.736 2.82317 114.247 2.1721C114.81 1.47802 115.574 0.944557 116.451 0.632817C117.472 0.255056 118.565 0.0689991 119.665 0.0855158C120.768 0.0662136 121.862 0.270555 122.87 0.684126C123.76 1.04982 124.519 1.64331 125.056 2.39444C125.577 3.13407 125.848 4.00048 125.834 4.88295H122.379C122.398 4.57568 122.343 4.26836 122.218 3.98302C122.093 3.69768 121.901 3.44138 121.656 3.2325C121.079 2.81033 120.354 2.60016 119.619 2.64244C118.92 2.60317 118.227 2.77748 117.646 3.13843C117.423 3.28586 117.242 3.48132 117.12 3.70783C116.997 3.93435 116.936 4.18508 116.942 4.43827C116.949 4.69704 117.029 4.94968 117.173 5.17151C117.318 5.39334 117.522 5.57678 117.766 5.7039C118.522 6.12795 119.339 6.45045 120.193 6.66168C121.778 7.02176 123.249 7.71871 124.491 8.69695C124.931 9.08566 125.279 9.55488 125.511 10.0747C125.744 10.5944 125.857 11.1533 125.843 11.7157C125.869 12.3261 125.732 12.9331 125.445 13.4833C125.157 14.0336 124.728 14.5102 124.194 14.8712C122.891 15.6905 121.332 16.093 119.758 16.0171C118.545 16.0336 117.342 15.812 116.229 15.3672C115.251 14.994 114.41 14.371 113.802 13.5714C113.24 12.7923 112.949 11.8734 112.969 10.9375H116.433C116.433 12.6478 117.538 13.5029 119.748 13.5029C120.427 13.5405 121.102 13.3789 121.675 13.0412C121.901 12.8934 122.082 12.695 122.202 12.4646C122.322 12.2342 122.377 11.9794 122.36 11.7242ZM140.782 2.88188H135.642V15.7862H132.187V2.88188H127.121V0.316408H140.782V2.88188ZM148.729 7.27739L152.221 0.299305H156L150.489 10.1678V15.7862H146.979V10.1678L141.468 0.299305H145.256L148.729 7.27739ZM100.428 15.4869H96.5934L102.41 0H106.013L111.857 15.4869H108.014L104.216 3.83966L100.428 15.4869Z" fill="#01AA9D"/>
</g>
<defs>
<clipPath id="clip0_2428_2984">
<rect width="156" height="16" fill="white"/>
</clipPath>
</defs>
</svg>
